<svg xmlns="http://www.w3.org/2000/svg" width="1600" height="1000" viewBox="0 0 1600 1000">
  <rect width="1600" height="1000" fill="#f5f5f2"/>
  <path d="M0 0H1600V18H0Z" fill="#171717"/>
  <text x="100" y="112" fill="#171717" font-family="Noto Sans CJK SC, sans-serif" font-size="58" font-weight="800">三层各管一件事</text>
  <text x="100" y="167" fill="#6e6e68" font-family="Noto Sans CJK SC, sans-serif" font-size="28">把执行方法、工具连接与交付包装分开，公共能力才不会跟着客户端漂移</text>

  <rect x="100" y="245" width="400" height="500" rx="26" fill="#ffffff" stroke="#262626" stroke-width="4"/>
  <rect x="100" y="245" width="400" height="22" rx="11" fill="#404040"/>
  <text x="145" y="342" fill="#171717" font-family="Noto Sans, Arial, sans-serif" font-size="52" font-weight="800">Skills</text>
  <text x="145" y="402" fill="#d1871e" font-family="Noto Sans CJK SC, sans-serif" font-size="35" font-weight="700">怎样做事</text>
  <rect x="145" y="465" width="310" height="64" rx="10" fill="#ededeb"/>
  <text x="170" y="508" fill="#333333" font-family="Noto Sans Mono, monospace" font-size="30">SKILL.md</text>
  <rect x="145" y="550" width="310" height="64" rx="10" fill="#ededeb"/>
  <text x="170" y="593" fill="#333333" font-family="Noto Sans Mono, monospace" font-size="30">scripts/</text>
  <rect x="145" y="635" width="310" height="64" rx="10" fill="#ededeb"/>
  <text x="170" y="678" fill="#333333" font-family="Noto Sans Mono, monospace" font-size="30">references/</text>

  <path d="M520 495H585" stroke="#777771" stroke-width="6"/>
  <path d="M570 480L590 495L570 510" fill="none" stroke="#777771" stroke-width="6"/>

  <rect x="600" y="245" width="400" height="500" rx="26" fill="#ffffff" stroke="#262626" stroke-width="4"/>
  <rect x="600" y="245" width="400" height="22" rx="11" fill="#777777"/>
  <text x="645" y="342" fill="#171717" font-family="Noto Sans, Arial, sans-serif" font-size="52" font-weight="800">MCP</text>
  <text x="645" y="402" fill="#d1871e" font-family="Noto Sans CJK SC, sans-serif" font-size="35" font-weight="700">怎样连接</text>
  <rect x="645" y="465" width="310" height="64" rx="10" fill="#ededeb"/>
  <text x="670" y="508" fill="#333333" font-family="Noto Sans CJK SC, sans-serif" font-size="29">本地进程</text>
  <rect x="645" y="550" width="310" height="64" rx="10" fill="#ededeb"/>
  <text x="670" y="593" fill="#333333" font-family="Noto Sans CJK SC, sans-serif" font-size="29">远程服务</text>
  <rect x="645" y="635" width="310" height="64" rx="10" fill="#ededeb"/>
  <text x="670" y="678" fill="#333333" font-family="Noto Sans CJK SC, sans-serif" font-size="29">工具与数据</text>

  <path d="M1020 495H1085" stroke="#777771" stroke-width="6"/>
  <path d="M1070 480L1090 495L1070 510" fill="none" stroke="#777771" stroke-width="6"/>

  <rect x="1100" y="245" width="400" height="500" rx="26" fill="#171717" stroke="#171717" stroke-width="4"/>
  <rect x="1100" y="245" width="400" height="22" rx="11" fill="#d99222"/>
  <text x="1145" y="342" fill="#ffffff" font-family="Noto Sans, Arial, sans-serif" font-size="47" font-weight="800">Agent Plugin</text>
  <text x="1145" y="402" fill="#e0a348" font-family="Noto Sans CJK SC, sans-serif" font-size="35" font-weight="700">怎样交付</text>
  <rect x="1145" y="465" width="310" height="64" rx="10" fill="#303030"/>
  <text x="1170" y="508" fill="#f2f2f2" font-family="Noto Sans Mono, monospace" font-size="28">plugin.json</text>
  <rect x="1145" y="550" width="310" height="64" rx="10" fill="#303030"/>
  <text x="1170" y="593" fill="#f2f2f2" font-family="Noto Sans Mono, monospace" font-size="28">skills/ + mcp.json</text>
  <rect x="1145" y="635" width="310" height="64" rx="10" fill="#303030"/>
  <text x="1170" y="678" fill="#f2f2f2" font-family="Noto Sans CJK SC, sans-serif" font-size="28">客户端扩展</text>

  <rect x="100" y="810" width="1400" height="110" rx="18" fill="#171717"/>
  <text x="800" y="879" text-anchor="middle" fill="#ffffff" font-family="Noto Sans CJK SC, sans-serif" font-size="38" font-weight="700">Plugin 统一的是包装，不替代 Skills 与 MCP 的执行协议</text>
</svg>
